<svg xmlns="http://www.w3.org/2000/svg" xmlns:xlink="http://www.w3.org/1999/xlink" viewBox="0 0 64 64"><defs><style>.cls-1{isolation:isolate;}.cls-2{fill:#1f1f1f;}.cls-3{font-size:17px;fill:#fff;}.cls-3,.cls-9{font-family:NotoSansKR-ExtraBold, Noto Sans KR;font-weight:700;}.cls-4{letter-spacing:-0.02em;}.cls-5{fill:#563d7c;}.cls-6{opacity:0.5;mix-blend-mode:multiply;fill:url(#linear-gradient);}.cls-7{fill:#fdf9ff;}.cls-8{fill:none;}.cls-9{font-size:7px;}</style><linearGradient id="linear-gradient" x1="0.34" y1="32" x2="64.34" y2="32" gradientUnits="userSpaceOnUse"><stop offset="0" stop-color="#fff"/><stop offset="1"/></linearGradient></defs><title>fajneikonki_builder</title><g class="cls-1"><g id="Layer_1" data-name="Layer 1"><rect class="cls-2" x="0.22" width="64" height="64" rx="32" ry="32"/><text class="cls-3" transform="translate(7.41 38.69)">&lt;<tspan class="cls-4" x="10.18" y="0">/</tspan><tspan x="16.44" y="0">git&gt;</tspan></text><path class="cls-5" d="M1.2,5.82,4.62,1.61A4.36,4.36,0,0,1,8,0H59.86a4.36,4.36,0,0,1,4.36,4.36V54.17a4.36,4.36,0,0,1-1,2.78L58.7,62.42A4.36,4.36,0,0,1,55.34,64H4.58A4.36,4.36,0,0,1,.22,59.64V8.57A4.36,4.36,0,0,1,1.2,5.82Z"/><path class="cls-6" d="M1.32,5.82,4.74,1.61A4.36,4.36,0,0,1,8.12,0H60a4.36,4.36,0,0,1,4.36,4.36V54.17a4.36,4.36,0,0,1-1,2.78l-4.52,5.47A4.36,4.36,0,0,1,55.46,64H4.7A4.36,4.36,0,0,1,.34,59.64V8.57A4.36,4.36,0,0,1,1.32,5.82Z"/><path class="cls-7" d="M32.34,43.09c-8.5,0-16.15.13-21.46.35a12.05,12.05,0,0,1,11.78-9.69H41.78a12.06,12.06,0,0,1,11.78,9.68C48.26,43.22,40.71,43.09,32.34,43.09Z"/><path class="cls-7" d="M53.78,45.75v1.48c-5.31-.21-13-.34-21.56-.34S16,47,10.66,47.23V45.75c0-.31,0-.61,0-.91,5.31.21,13,.34,21.64.34s16.09-.13,21.4-.34C53.77,45.14,53.78,45.44,53.78,45.75Z"/><path class="cls-7" d="M32.22,49.86c8.44,0,16-.13,21.34-.34a12.05,12.05,0,0,1-11.78,9.69H22.66a12.05,12.05,0,0,1-11.78-9.69C16.18,49.73,23.78,49.86,32.22,49.86Z"/><path class="cls-7" d="M53.78,45.72v1.49c0,.31,0,.61,0,.91-5.31-.22-13-.35-21.52-.35S16,47.9,10.7,48.12c0-.3,0-.6,0-.91V45.72c5.31.22,13,.35,21.56.35S48.47,45.94,53.78,45.72Z"/><circle class="cls-7" cx="32.34" cy="16.84" r="12.04"/><path class="cls-8" d="M53.74,41.93a12.93,12.93,0,0,0-.18-1.41"/><text class="cls-9" transform="translate(16.73 41.88)">BUILDER</text></g></g></svg>