<svg id="Layer_1" data-name="Layer 1" xmlns="http://www.w3.org/2000/svg" viewBox="0 0 64 64"><defs><style>.cls-1{fill:#fff;}</style></defs><title>fajneikonki_fiwhite</title><g id="Layer_1-2" data-name="Layer 1"><path class="cls-1" d="M20.7,16.7v4.2a3.16,3.16,0,0,0,3.2,3.2H38.5a3.16,3.16,0,0,1,3.2,3.2v1.8A3.22,3.22,0,0,1,39,32.3L23.5,35a3.32,3.32,0,0,0-2.7,3.2V56.7a3.11,3.11,0,0,1-2.5,3.1l-8.4,2a3.27,3.27,0,0,1-4-3.1V5.4A3.16,3.16,0,0,1,9.1,2.2H43.4a3.16,3.16,0,0,1,3.2,3.2V6.7a3.28,3.28,0,0,1-2,3l-8.3,3.5a2.77,2.77,0,0,1-1.3.3H23.9A3.1,3.1,0,0,0,20.7,16.7Z"/><path class="cls-1" d="M54.7,18.6H46.3a3.16,3.16,0,0,0-3.2,3.2v33a3.28,3.28,0,0,0,2,3l8.4,3.4a3.19,3.19,0,0,0,4.4-3V21.8A3.16,3.16,0,0,0,54.7,18.6Z"/><path class="cls-1" d="M46.4,17h8.4A3.16,3.16,0,0,0,58,13.8h0a3.16,3.16,0,0,0-3.2-3.2H46.4a3.16,3.16,0,0,0-3.2,3.2h0A3.16,3.16,0,0,0,46.4,17Z"/></g></svg>