<svg xmlns="http://www.w3.org/2000/svg" xmlns:xlink="http://www.w3.org/1999/xlink" viewBox="0 0 64 64"><defs><style>.cls-1{isolation:isolate;}.cls-2{fill:#1f1f1f;}.cls-3{font-size:17px;fill:#fff;}.cls-3,.cls-9{font-family:NotoSansKR-ExtraBold, Noto Sans KR;font-weight:700;}.cls-4{letter-spacing:-0.02em;}.cls-5{fill:#563d7c;}.cls-6{opacity:0.5;mix-blend-mode:multiply;fill:url(#linear-gradient);}.cls-7{fill:#fdf9ff;}.cls-8{fill:none;}.cls-9{font-size:7px;}</style><linearGradient id="linear-gradient" x1="0.12" y1="32" x2="64.12" y2="32" gradientUnits="userSpaceOnUse"><stop offset="0" stop-color="#fff"/><stop offset="1"/></linearGradient></defs><title>fajneikonki_speaker</title><g class="cls-1"><g id="Layer_1" data-name="Layer 1"><rect class="cls-2" width="64" height="64" rx="32" ry="32"/><text class="cls-3" transform="translate(7.19 38.69)">&lt;<tspan class="cls-4" x="10.18" y="0">/</tspan><tspan x="16.44" y="0">git&gt;</tspan></text><path class="cls-5" d="M1,5.82,4.4,1.61A4.36,4.36,0,0,1,7.78,0H59.64A4.36,4.36,0,0,1,64,4.36V54.17A4.36,4.36,0,0,1,63,57l-4.52,5.47A4.36,4.36,0,0,1,55.12,64H4.36A4.36,4.36,0,0,1,0,59.64V8.57A4.36,4.36,0,0,1,1,5.82Z"/><path class="cls-6" d="M1.1,5.82,4.52,1.61A4.36,4.36,0,0,1,7.9,0H59.76a4.36,4.36,0,0,1,4.36,4.36V54.17a4.36,4.36,0,0,1-1,2.78L58.6,62.42A4.36,4.36,0,0,1,55.24,64H4.48A4.36,4.36,0,0,1,.12,59.64V8.57A4.36,4.36,0,0,1,1.1,5.82Z"/><path class="cls-7" d="M32.12,43.09c-8.5,0-16.15.13-21.46.35a12.05,12.05,0,0,1,11.78-9.69H41.56a12.06,12.06,0,0,1,11.78,9.68C48,43.22,40.49,43.09,32.12,43.09Z"/><path class="cls-7" d="M53.56,45.75v1.48c-5.31-.21-13-.34-21.56-.34s-16.25.13-21.56.34V45.75c0-.31,0-.61,0-.91,5.31.21,13,.34,21.64.34s16.09-.13,21.4-.34C53.55,45.14,53.56,45.44,53.56,45.75Z"/><path class="cls-7" d="M32,49.86c8.44,0,16-.13,21.34-.34a12.05,12.05,0,0,1-11.78,9.69H22.44a12.05,12.05,0,0,1-11.78-9.69C16,49.73,23.56,49.86,32,49.86Z"/><path class="cls-7" d="M53.56,45.72v1.49c0,.31,0,.61,0,.91-5.31-.22-13-.35-21.52-.35s-16.21.13-21.52.35c0-.3,0-.6,0-.91V45.72c5.31.22,13,.35,21.56.35S48.25,45.94,53.56,45.72Z"/><circle class="cls-7" cx="32.12" cy="16.84" r="12.04"/><path class="cls-8" d="M53.52,41.93a12.93,12.93,0,0,0-.18-1.41"/><text class="cls-9" transform="translate(15.86 41.88)">SPEAKER</text></g></g></svg>