<?xml version="1.0" encoding="utf-8"?>
<!-- Generator: Adobe Illustrator 20.1.0, SVG Export Plug-In . SVG Version: 6.00 Build 0)  -->
<svg version="1.1" id="Layer_1" xmlns="http://www.w3.org/2000/svg" xmlns:xlink="http://www.w3.org/1999/xlink" x="0px" y="0px"
	 viewBox="0 0 64 64" style="enable-background:new 0 0 64 64;" xml:space="preserve">
<style type="text/css">
	.st0{fill:#1F1F1F;}
	.st1{fill:none;}
	.st2{fill:#FFFFFF;}
	.st3{font-family:'NotoSansKR-ExtraBold';}
	.st4{font-size:17px;}
</style>
<path class="st0" d="M32,64L32,64C14.3,64,0,49.7,0,32v0C0,14.3,14.3,0,32,0h0c17.7,0,32,14.3,32,32v0C64,49.7,49.7,64,32,64z"/>
<rect x="0" y="25.1" class="st1" width="64" height="49"/>
<text transform="matrix(1 0 0 1 1.9531 38.692)" class="st2 st3 st4">&lt;/php&gt;</text>
<path class="st0" d="M115.9,64L115.9,64c-17.7,0-32-14.3-32-32v0c0-17.7,14.3-32,32-32h0c17.7,0,32,14.3,32,32v0
	C147.9,49.7,133.6,64,115.9,64z"/>
<rect x="83.9" y="25.1" class="st1" width="64" height="49"/>
<text transform="matrix(1 0 0 1 93.4995 38.692)" class="st2 st3 st4">&lt;/kt&gt;</text>
<path class="st0" d="M32,138.2L32,138.2c-17.7,0-32-14.3-32-32v0c0-17.7,14.3-32,32-32h0c17.7,0,32,14.3,32,32v0
	C64,123.8,49.7,138.2,32,138.2z"/>
<rect x="0" y="99.3" class="st1" width="64" height="49"/>
<text transform="matrix(1 0 0 1 2.9814 112.865)" class="st2 st3 st4">&lt;/dev&gt;</text>
<path class="st0" d="M115.9,74.2c17.7,0,32,14.3,32,32v0c0,17.7-14.3,32-32,32h0c-17.7,0-32-14.3-32-32v0
	C83.9,88.5,98.2,74.2,115.9,74.2"/>
<rect x="83.9" y="99.3" class="st1" width="64" height="49"/>
<text transform="matrix(1 0 0 1 86.2915 112.865)" class="st2 st3 st4">&lt;/app&gt;</text>
<path class="st0" d="M32,212.3L32,212.3c-17.7,0-32-14.3-32-32v0c0-17.7,14.3-32,32-32h0c17.7,0,32,14.3,32,32v0
	C64,198,49.7,212.3,32,212.3z"/>
<rect x="0" y="173.5" class="st1" width="64" height="49"/>
<text transform="matrix(1 0 0 1 7.0356 187.0381)" class="st2 st3 st4">&lt;/git&gt;</text>
<path class="st0" d="M115.9,212.3L115.9,212.3c-17.7,0-32-14.3-32-32v0c0-17.7,14.3-32,32-32h0c17.7,0,32,14.3,32,32v0
	C147.9,198,133.6,212.3,115.9,212.3z"/>
<rect x="83.9" y="173.5" class="st1" width="64" height="49"/>
<text transform="matrix(1 0 0 1 95.5054 187.0381)" class="st2 st3 st4">&lt;/js&gt;</text>
<path class="st0" d="M195.8,138.2L195.8,138.2c-17.7,0-32-14.3-32-32v0c0-17.7,14.3-32,32-32h0c17.7,0,32,14.3,32,32v0
	C227.8,123.8,213.5,138.2,195.8,138.2z"/>
<rect x="163.8" y="99.3" class="st1" width="64" height="49"/>
<text transform="matrix(1 0 0 1 166.331 112.865)" class="st2 st3 st4">&lt;/end&gt;</text>
<path class="st0" d="M195.8,64L195.8,64c-17.7,0-32-14.3-32-32v0c0-17.7,14.3-32,32-32h0c17.7,0,32,14.3,32,32v0
	C227.8,49.7,213.5,64,195.8,64z"/>
<rect x="163.8" y="25.1" class="st1" width="64" height="49"/>
<text transform="matrix(1 0 0 1 171.7627 38.692)" class="st2 st3 st4">&lt;/ad&gt;</text>
<path class="st0" d="M195.8,212.3L195.8,212.3c-17.7,0-32-14.3-32-32v0c0-17.7,14.3-32,32-32h0c17.7,0,32,14.3,32,32v0
	C227.8,198,213.5,212.3,195.8,212.3z"/>
<rect x="163.8" y="173.5" class="st1" width="64" height="49"/>
<text transform="matrix(1 0 0 1 167.2148 187.0381)" class="st2 st3 st4">&lt;/ops&gt;</text>
<path class="st0" d="M32,289L32,289c-17.7,0-32-14.3-32-32v0c0-17.7,14.3-32,32-32h0c17.7,0,32,14.3,32,32v0
	C64,274.6,49.7,289,32,289z"/>
<rect x="0" y="250.1" class="st1" width="64" height="49"/>
<text transform="matrix(1 0 0 1 6.8745 263.6446)" class="st2 st3 st4">&lt;/PR&gt;</text>
<path class="st0" d="M115.9,289L115.9,289c-17.7,0-32-14.3-32-32v0c0-17.7,14.3-32,32-32h0c17.7,0,32,14.3,32,32v0
	C147.9,274.6,133.6,289,115.9,289z"/>
<rect x="83.9" y="250.1" class="st1" width="64" height="49"/>
<text transform="matrix(1 0 0 1 87.813 263.6446)" class="st2 st3 st4">&lt;/seo&gt;</text>
<path class="st0" d="M195.8,289L195.8,289c-17.7,0-32-14.3-32-32v0c0-17.7,14.3-32,32-32h0c17.7,0,32,14.3,32,32v0
	C227.8,274.6,213.5,289,195.8,289z"/>
<rect x="163.8" y="250.1" class="st1" width="64" height="49"/>
<text transform="matrix(1 0 0 1 169.833 263.6446)" class="st2 st3 st4">&lt;/sql&gt;</text>
<path class="st0" d="M276.1,212.3L276.1,212.3c-17.7,0-32-14.3-32-32v0c0-17.7,14.3-32,32-32h0c17.7,0,32,14.3,32,32v0
	C308.1,198,293.8,212.3,276.1,212.3z"/>
<rect x="244.1" y="173.5" class="st1" width="64" height="49"/>
<text transform="matrix(1 0 0 1 253.3405 187.0381)" class="st2 st3 st4">&lt;/UI&gt;</text>
<path class="st0" d="M276.1,289L276.1,289c-17.7,0-32-14.3-32-32v0c0-17.7,14.3-32,32-32h0c17.7,0,32,14.3,32,32v0
	C308.1,274.6,293.8,289,276.1,289z"/>
<rect x="244.1" y="250.1" class="st1" width="64" height="49"/>
<text transform="matrix(1 0 0 1 250.7737 263.6446)" class="st2 st3 st4">&lt;/UX&gt;</text>
</svg>
