<?xml version="1.0" encoding="utf-8"?>
<!-- Generator: Adobe Illustrator 20.1.0, SVG Export Plug-In . SVG Version: 6.00 Build 0)  -->
<svg version="1.1" xmlns="http://www.w3.org/2000/svg" xmlns:xlink="http://www.w3.org/1999/xlink" x="0px" y="0px"
	 viewBox="0 0 64 64" style="enable-background:new 0 0 64 64;" xml:space="preserve">
<style type="text/css">
	.st0{display:none;}
</style>
<g id="Layer_1">
	<path d="M20.7,16.7v4.2c0,1.8,1.4,3.2,3.2,3.2h14.6c1.8,0,3.2,1.4,3.2,3.2v1.8c0,1.6-1.1,2.9-2.7,3.2L23.5,35
		c-1.5,0.3-2.7,1.6-2.7,3.2v18.5c0,1.5-1,2.8-2.5,3.1l-8.4,2c-2,0.5-4-1.1-4-3.1V5.4c0-1.8,1.4-3.2,3.2-3.2h34.3
		c1.8,0,3.2,1.4,3.2,3.2v1.3c0,1.3-0.8,2.5-2,3l-8.3,3.5c-0.4,0.2-0.8,0.3-1.3,0.3H23.9C22.1,13.4,20.7,14.9,20.7,16.7z"/>
	<path d="M54.7,18.6h-8.4c-1.8,0-3.2,1.4-3.2,3.2v33c0,1.3,0.8,2.5,2,3l8.4,3.4c2.1,0.9,4.4-0.7,4.4-3V21.8
		C58,20.1,56.5,18.6,54.7,18.6z"/>
	<path d="M46.4,17h8.4c1.8,0,3.2-1.4,3.2-3.2v0c0-1.8-1.4-3.2-3.2-3.2h-8.4c-1.8,0-3.2,1.4-3.2,3.2v0C43.2,15.6,44.6,17,46.4,17z"/>
</g>
<g id="Layer_2" class="st0">
</g>
</svg>
