<svg xmlns="http://www.w3.org/2000/svg" xmlns:xlink="http://www.w3.org/1999/xlink" viewBox="0 0 64 64"><defs><style>.cls-1{isolation:isolate;}.cls-2{fill:#1f1f1f;}.cls-3{font-size:17px;fill:#fff;}.cls-3,.cls-9{font-family:NotoSansKR-ExtraBold, Noto Sans KR;font-weight:700;}.cls-4{letter-spacing:-0.02em;}.cls-5{fill:#563d7c;}.cls-6{opacity:0.5;mix-blend-mode:multiply;fill:url(#linear-gradient);}.cls-7{fill:#fdf9ff;}.cls-8{fill:none;}.cls-9{font-size:7px;}.cls-10{letter-spacing:-0.05em;}.cls-11{letter-spacing:-0.02em;}</style><linearGradient id="linear-gradient" x1="-0.05" y1="32" x2="63.95" y2="32" gradientUnits="userSpaceOnUse"><stop offset="0" stop-color="#fff"/><stop offset="1"/></linearGradient></defs><title>fajneikonki_coach</title><g class="cls-1"><g id="Layer_1" data-name="Layer 1"><rect class="cls-2" x="-0.17" width="64" height="64" rx="32" ry="32"/><text class="cls-3" transform="translate(7.02 38.69)">&lt;<tspan class="cls-4" x="10.18" y="0">/</tspan><tspan x="16.44" y="0">git&gt;</tspan></text><path class="cls-5" d="M.81,5.82,4.23,1.61A4.36,4.36,0,0,1,7.61,0H59.47a4.36,4.36,0,0,1,4.36,4.36V54.17a4.36,4.36,0,0,1-1,2.78l-4.52,5.47A4.36,4.36,0,0,1,55,64H4.19A4.36,4.36,0,0,1-.17,59.64V8.57A4.36,4.36,0,0,1,.81,5.82Z"/><path class="cls-6" d="M.93,5.82,4.35,1.61A4.36,4.36,0,0,1,7.73,0H59.59A4.36,4.36,0,0,1,64,4.36V54.17A4.36,4.36,0,0,1,63,57l-4.52,5.47A4.36,4.36,0,0,1,55.07,64H4.31A4.36,4.36,0,0,1,0,59.64V8.57A4.36,4.36,0,0,1,.93,5.82Z"/><path class="cls-7" d="M32,43.09c-8.5,0-16.15.13-21.46.35a12.05,12.05,0,0,1,11.78-9.69H41.39a12.06,12.06,0,0,1,11.78,9.68C47.87,43.22,40.32,43.09,32,43.09Z"/><path class="cls-7" d="M53.39,45.75v1.48c-5.31-.21-13-.34-21.56-.34s-16.25.13-21.56.34V45.75c0-.31,0-.61,0-.91,5.31.21,13,.34,21.64.34S48,45,53.35,44.84C53.38,45.14,53.39,45.44,53.39,45.75Z"/><path class="cls-7" d="M31.83,49.86c8.44,0,16-.13,21.34-.34a12.05,12.05,0,0,1-11.78,9.69H22.27a12.05,12.05,0,0,1-11.78-9.69C15.79,49.73,23.39,49.86,31.83,49.86Z"/><path class="cls-7" d="M53.39,45.72v1.49c0,.31,0,.61,0,.91-5.31-.22-13-.35-21.52-.35s-16.21.13-21.52.35c0-.3,0-.6,0-.91V45.72c5.31.22,13,.35,21.56.35S48.08,45.94,53.39,45.72Z"/><circle class="cls-7" cx="31.95" cy="16.84" r="12.04"/><path class="cls-8" d="M53.35,41.93a12.93,12.93,0,0,0-.18-1.41"/><text class="cls-9" transform="translate(19.76 41.88)"><tspan class="cls-10">C</tspan><tspan class="cls-11" x="4.31" y="0">OA</tspan><tspan x="14.06" y="0">CH</tspan></text></g></g></svg>