<svg xmlns="http://www.w3.org/2000/svg" xmlns:xlink="http://www.w3.org/1999/xlink" viewBox="0 0 64 64"><defs><style>.cls-1{isolation:isolate;}.cls-2{fill:#1f1f1f;}.cls-3{font-size:17px;fill:#fff;}.cls-3,.cls-9{font-family:NotoSansKR-ExtraBold, Noto Sans KR;font-weight:700;}.cls-4{letter-spacing:-0.02em;}.cls-5{fill:#563d7c;}.cls-6{opacity:0.5;mix-blend-mode:multiply;fill:url(#linear-gradient);}.cls-7{fill:#fdf9ff;}.cls-8{fill:none;}.cls-9{font-size:7px;}.cls-10{letter-spacing:-0.04em;}</style><linearGradient id="linear-gradient" x1="0.06" y1="32.09" x2="64.06" y2="32.09" gradientUnits="userSpaceOnUse"><stop offset="0" stop-color="#fff"/><stop offset="1"/></linearGradient></defs><title>fajneikonki_mentor</title><g class="cls-1"><g id="Layer_1" data-name="Layer 1"><rect class="cls-2" x="-0.06" y="0.09" width="64" height="64" rx="32" ry="32"/><text class="cls-3" transform="translate(7.13 38.78)">&lt;<tspan class="cls-4" x="10.18" y="0">/</tspan><tspan x="16.44" y="0">git&gt;</tspan></text><path class="cls-5" d="M.92,5.91,4.34,1.7A4.36,4.36,0,0,1,7.72.09H59.58a4.36,4.36,0,0,1,4.36,4.36V54.26a4.36,4.36,0,0,1-1,2.78L58.42,62.5a4.36,4.36,0,0,1-3.36,1.58H4.3A4.36,4.36,0,0,1-.06,59.72V8.66A4.36,4.36,0,0,1,.92,5.91Z"/><path class="cls-6" d="M1,5.91,4.46,1.7A4.36,4.36,0,0,1,7.84.09H59.7a4.36,4.36,0,0,1,4.36,4.36V54.26a4.36,4.36,0,0,1-1,2.78L58.54,62.5a4.36,4.36,0,0,1-3.36,1.58H4.42A4.36,4.36,0,0,1,.06,59.72V8.66A4.36,4.36,0,0,1,1,5.91Z"/><path class="cls-7" d="M32.06,43.18c-8.5,0-16.15.13-21.46.35a12.05,12.05,0,0,1,11.78-9.69H41.5a12.06,12.06,0,0,1,11.78,9.68C48,43.31,40.43,43.18,32.06,43.18Z"/><path class="cls-7" d="M53.5,45.84v1.48c-5.31-.21-13-.34-21.56-.34s-16.25.13-21.56.34V45.84c0-.31,0-.61,0-.91,5.31.21,13,.34,21.64.34s16.09-.13,21.4-.34C53.49,45.23,53.5,45.53,53.5,45.84Z"/><path class="cls-7" d="M31.94,49.94c8.44,0,16-.13,21.34-.34A12.05,12.05,0,0,1,41.5,59.29H22.38A12.05,12.05,0,0,1,10.6,49.6C15.9,49.81,23.5,49.94,31.94,49.94Z"/><path class="cls-7" d="M53.5,45.8v1.49c0,.31,0,.61,0,.91-5.31-.22-13-.35-21.52-.35s-16.21.13-21.52.35c0-.3,0-.6,0-.91V45.8c5.31.22,13,.35,21.56.35S48.19,46,53.5,45.8Z"/><circle class="cls-7" cx="32.06" cy="16.92" r="12.04"/><path class="cls-8" d="M53.46,42a12.93,12.93,0,0,0-.18-1.41"/><text class="cls-9" transform="translate(16.8 41.97)">MEN<tspan class="cls-10" x="15.72" y="0">T</tspan><tspan x="19.88" y="0">OR</tspan></text></g></g></svg>